<svg version="1.1" id="Layer_1" xmlns="http://www.w3.org/2000/svg" xmlns:xlink="http://www.w3.org/1999/xlink" x="0px" y="0px"
	 width="100%" viewBox="0 0 1024 1024" enable-background="new 0 0 1024 1024" xml:space="preserve">
<path fill="#000000" opacity="1.000000" stroke="none" 
	d="
M486.765808,453.018616 
	C491.422241,452.467194 493.603851,454.492340 494.893219,458.393768 
	C496.601074,463.561493 498.474701,468.716888 501.966827,473.846405 
	C505.931763,469.829285 506.955963,464.825287 508.951416,460.448608 
	C512.734741,452.150574 512.563293,451.972412 521.811584,452.095795 
	C571.118286,452.753693 620.375122,454.392639 669.456665,459.565552 
	C681.376282,460.821777 693.326416,461.792328 705.266968,462.844086 
	C708.840454,463.158813 712.063293,464.201080 714.971802,466.385254 
	C716.805603,467.762329 718.510742,469.445221 721.299988,470.083954 
	C722.981384,466.144073 726.453003,466.334686 729.985352,466.828186 
	C737.240356,467.841766 744.485229,468.928253 751.741394,469.933289 
	C754.891541,470.369537 756.440735,471.943420 756.322327,475.264008 
	C756.248108,477.344116 755.882446,479.653687 758.230225,481.484161 
	C761.743408,480.611908 763.686829,477.500641 765.958374,475.020081 
	C769.061279,471.631744 772.243591,470.309937 776.999756,471.496246 
	C784.579224,473.386749 792.339600,474.581238 800.055176,475.881714 
	C802.929138,476.366089 804.872314,477.896576 806.589722,480.047546 
	C811.446106,486.129822 816.347534,492.176117 821.461365,498.522308 
	C826.421204,494.690338 829.910522,489.976654 833.782959,485.700867 
	C836.841370,482.323914 839.857910,481.107910 844.328186,482.709930 
	C850.121338,484.786011 856.127441,486.261963 862.012451,488.090790 
	C864.393616,488.830750 866.740540,489.720734 869.028076,490.714905 
	C875.722900,493.624298 892.103943,518.761536 892.110046,526.020569 
	C892.113037,529.519958 891.712097,533.078735 892.208801,536.506958 
	C893.394592,544.690552 889.673218,551.414001 886.317749,558.264709 
	C884.887512,561.184692 884.717224,561.101257 878.154480,559.777344 
	C877.081970,561.261475 878.325134,562.263733 879.018311,563.252625 
	C883.033508,568.979736 886.997498,574.749756 891.228149,580.315674 
	C893.173523,582.875061 893.938599,585.589050 893.953186,588.661133 
	C894.029053,604.658264 894.060120,620.655884 894.219482,636.652161 
	C894.246582,639.374512 893.416321,641.513245 891.461548,643.308777 
	C886.308899,648.041443 881.136414,652.752991 876.026184,657.531067 
	C873.757507,659.652344 871.471985,659.729614 868.727539,658.413086 
	C857.608215,653.079529 846.254089,648.277588 834.652466,644.095459 
	C831.730957,643.042236 830.007935,641.223145 828.852112,638.418884 
	C825.750854,630.894531 822.479431,623.440430 819.127686,615.612854 
	C815.046265,617.670593 812.827820,621.222412 810.628479,624.596130 
	C808.629333,627.662781 806.426270,628.269958 803.060242,627.166016 
	C790.401001,623.014221 777.694092,619.006287 764.979187,615.027039 
	C762.403259,614.220886 760.779724,612.659668 759.492004,610.331055 
	C757.663513,607.025024 756.451782,603.277832 753.207153,600.594971 
	C750.727844,602.119812 750.450073,604.647583 750.071472,607.042297 
	C749.598267,610.034607 748.087097,610.809875 745.164307,610.167725 
	C732.321228,607.345886 719.419617,604.787476 706.592590,601.896912 
	C700.781067,600.587280 693.783020,600.830261 692.723572,592.731995 
	C691.679321,592.901062 691.165405,592.846741 691.072449,593.019226 
	C687.893250,598.918457 682.930603,598.588318 677.433655,597.223389 
	C673.567993,596.263550 669.593628,595.491455 665.629761,595.243347 
	C661.140625,594.962280 659.662292,592.978699 659.706909,588.597412 
	C659.952820,564.436462 659.790222,540.269653 660.228210,516.113220 
	C660.362793,508.688538 657.199829,502.987640 653.316956,497.323151 
	C652.587463,496.258881 651.697021,495.174316 650.076965,495.005768 
	C648.481567,496.798340 649.058228,499.065002 649.032654,501.117401 
	C648.754272,523.440491 648.309692,545.766235 648.459473,568.087524 
	C648.517029,576.651428 644.572998,583.412415 640.888611,590.469727 
	C640.009705,592.153259 638.533813,592.618591 636.679688,592.436707 
	C631.377136,591.916382 626.070129,591.427856 620.756714,591.038025 
	C617.121521,590.771362 616.637451,588.462952 616.661377,585.482117 
	C616.875366,558.822021 616.981934,532.160950 617.248901,505.501404 
	C617.326599,497.743378 616.429810,496.271576 609.722412,495.863281 
	C608.260498,503.874512 603.452026,509.850128 597.188538,514.833313 
	C597.059143,514.936218 596.890503,515.050476 596.847229,515.192200 
	C594.275269,523.607788 587.891052,522.120117 581.467712,521.458557 
	C574.522034,520.743286 567.500732,520.793152 560.522339,520.351685 
	C556.743591,520.112549 555.089233,521.433472 555.083008,525.433350 
	C555.068420,534.757568 554.994995,544.100708 554.367615,553.397156 
	C554.035400,558.319824 556.244263,559.585388 560.380188,559.637756 
	C567.878235,559.732666 575.376953,559.817993 582.873108,560.000549 
	C585.698669,560.069397 588.516724,560.414734 591.340393,560.601074 
	C594.055664,560.780396 596.923157,561.213562 596.998291,557.072449 
	C597.062927,553.510498 597.593567,550.134705 592.161011,549.759949 
	C585.169250,549.277710 578.183044,549.054016 571.190369,549.015015 
	C567.163635,548.992615 565.386780,547.365845 565.666199,543.285461 
	C565.882141,540.131775 565.756714,536.955811 565.829285,533.790833 
	C565.901367,530.651062 567.326294,529.495239 570.329956,530.887634 
	C571.386353,531.377380 572.741821,531.696899 573.381470,532.535889 
	C578.758667,539.588440 586.701416,537.828613 593.880737,538.662048 
	C595.199707,538.815247 596.544250,538.743896 597.876709,538.784973 
	C605.892883,539.031982 606.079651,539.239746 605.446655,547.029236 
	C605.379211,547.858826 605.245911,548.713562 605.366821,549.523254 
	C607.357910,562.858154 602.377197,574.235596 595.632996,585.214294 
	C594.077881,587.745911 592.509888,589.292053 589.383362,589.128723 
	C566.422363,587.929749 543.443420,587.351257 520.450989,587.395874 
	C518.028381,587.400574 516.269348,586.585938 515.479126,583.198608 
	C512.825317,587.641418 509.426575,588.287231 505.615173,588.094299 
	C502.956909,587.959839 500.256042,587.866760 497.624268,588.178284 
	C492.251678,588.814026 488.377502,587.727478 488.121948,581.341980 
	C488.100189,580.798767 487.475891,580.279785 487.235840,579.910156 
	C485.662506,579.664612 484.976410,580.618958 484.744385,581.492981 
	C483.238739,587.164673 479.476471,588.416565 473.925018,588.587708 
	C462.123657,588.951538 450.351013,590.225708 438.563934,591.090515 
	C435.414093,591.321594 432.169098,591.793518 429.642731,588.455750 
	C427.625397,591.880310 424.559814,592.745605 421.380554,592.783203 
	C413.796661,592.873047 406.317108,595.537659 398.612091,593.420349 
	C396.342896,592.796814 394.844879,595.688477 392.407776,596.004822 
	C377.713043,597.912537 363.103912,600.385925 348.587402,603.356201 
	C344.266846,604.240234 342.677460,602.655823 342.931274,598.476868 
	C343.009216,597.193420 342.735626,595.888733 342.559631,593.865356 
	C339.527649,595.954712 338.405090,598.756226 337.035889,601.226685 
	C335.535950,603.933044 333.464508,605.364990 330.479645,606.006836 
	C314.523041,609.437866 298.636505,613.179443 283.075562,618.137573 
	C278.847900,619.484680 277.761627,618.057922 277.810425,614.017883 
	C278.116058,588.698730 278.881165,563.397339 280.375061,538.119690 
	C280.463196,536.628601 280.729431,535.139526 279.650421,533.475830 
	C277.967255,534.537354 277.682098,536.346497 277.088196,537.925354 
	C273.511627,547.433899 270.089752,557.008423 265.257904,565.984558 
	C264.520782,567.353943 264.213654,568.764832 264.162445,570.285950 
	C263.876678,578.773254 263.119385,587.274597 263.389954,595.743408 
	C263.747223,606.925903 258.903259,616.425842 254.800812,626.224548 
	C254.445969,627.072083 253.630234,628.049194 252.810883,628.329407 
	C245.138397,630.952637 237.418381,633.436890 230.139755,635.821228 
	C228.483566,634.872986 228.651184,633.830139 228.679321,632.843323 
	C229.229797,613.539734 229.199753,594.215942 230.686676,574.944519 
	C230.737778,574.282288 230.865341,573.562622 230.679367,572.954773 
	C227.329132,562.004456 222.342422,551.721375 217.816452,539.810486 
	C212.219589,555.803467 197.034302,556.586914 186.174850,563.482361 
	C183.562149,565.141296 182.090332,563.676941 181.929153,560.870056 
	C181.766876,558.043396 181.841766,555.202087 181.644058,552.379028 
	C181.507263,550.425842 181.453140,547.824524 178.812286,547.918579 
	C176.534897,547.999634 176.491196,550.434387 176.448654,552.250793 
	C176.300476,558.580872 176.280960,564.913879 176.141083,571.244202 
	C175.857773,584.065063 175.486710,596.884216 175.263992,609.705994 
	C175.232910,611.495422 174.331436,614.318604 177.307831,614.479492 
	C179.826248,614.615723 182.912125,613.430908 182.639267,610.421509 
	C181.714996,600.227600 187.400757,595.901428 196.189682,593.836731 
	C197.290192,593.578186 198.515167,593.030884 199.265228,592.227661 
	C205.584595,585.460571 211.693848,588.086853 218.113937,592.180420 
	C221.262070,594.187805 222.459351,596.205444 221.413330,599.955933 
	C217.552811,613.797607 211.350662,626.776611 206.776413,640.322754 
	C203.705795,649.416016 198.322006,654.690796 189.368057,657.550049 
	C183.382721,659.461365 177.783783,662.619385 172.082214,665.365540 
	C169.580704,666.570251 167.518311,666.468140 165.095001,664.966858 
	C158.413956,660.827698 152.258270,656.016846 146.202301,651.046204 
	C143.842606,649.109436 142.696930,646.768250 142.802582,643.666931 
	C143.743729,616.039917 144.656525,588.411804 145.522751,560.782288 
	C145.768127,552.955505 145.876450,545.123474 145.963669,537.292908 
	C146.013092,532.856201 147.051376,528.809204 149.400284,524.965698 
	C154.263718,517.007568 158.997864,508.965637 163.577423,500.841064 
	C165.928329,496.670349 169.154251,494.005463 173.766495,492.698151 
	C178.570404,491.336578 183.345474,489.806458 188.003891,488.014130 
	C194.659668,485.453278 201.051758,484.073517 207.098404,489.442688 
	C208.774292,490.930786 210.699097,490.273651 212.734436,489.712006 
	C220.758209,487.497894 228.880127,485.640320 236.908676,483.442413 
	C240.734650,482.395020 242.719971,483.781036 244.345032,487.207581 
	C246.297012,491.323547 247.490067,495.951294 251.063339,499.450409 
	C254.637039,497.250732 255.460831,493.605011 256.369476,490.493408 
	C258.929382,481.727386 264.088196,477.223328 273.417175,475.826660 
	C291.848541,473.067200 310.133667,469.317963 328.457123,465.860718 
	C332.431915,465.110718 335.542389,467.173615 338.953491,468.351166 
	C341.184967,469.121490 343.246826,470.042938 344.983826,467.185150 
	C346.198395,465.186829 348.715759,465.220001 350.842010,464.903748 
	C378.679810,460.763702 406.639008,457.667114 434.669067,455.181519 
	C441.822662,454.547150 449.015808,453.687469 455.432983,460.687134 
	C456.536591,452.750122 461.808746,454.088135 466.347717,453.884583 
	C473.002228,453.586121 479.657593,453.306061 486.765808,453.018616 
M821.249756,561.195740 
	C815.357544,554.323608 816.929016,545.656006 815.969116,536.873779 
	C810.472778,543.877441 805.051086,539.734253 799.715637,538.131042 
	C797.802856,537.556274 795.921692,536.876648 794.024414,536.250122 
	C785.344666,533.383911 785.179871,533.136658 785.247253,523.888794 
	C785.255615,522.733398 785.256592,521.521545 784.936218,520.431274 
	C784.136658,517.710144 781.646973,516.860901 779.386292,515.812134 
	C777.185303,514.791138 777.614441,517.696289 776.260986,518.024902 
	C775.178467,509.536072 777.017029,507.815094 784.969360,510.060059 
	C787.508118,510.776764 790.065063,511.723206 792.330200,513.048828 
	C796.114624,515.263611 800.203308,516.661316 804.286072,518.059143 
	C808.575623,519.527832 810.129089,518.167175 808.800171,513.786621 
	C807.453796,509.348816 805.278198,505.169891 803.671570,500.801941 
	C801.536438,494.997284 797.995667,491.258148 791.404114,490.851624 
	C788.445679,490.669159 785.436279,489.972748 782.626099,489.000671 
	C776.488586,486.877808 771.385498,487.482452 767.336060,493.142822 
	C765.868347,495.194427 763.338745,496.121460 763.355530,499.523315 
	C763.473877,523.510132 763.327026,547.498352 763.226440,571.486023 
	C763.189758,580.242615 767.659302,586.757446 775.916504,589.520447 
	C783.023743,591.898499 790.186340,594.110657 797.312317,596.433228 
	C805.045471,598.953796 808.285278,597.730042 813.349487,589.878113 
	C809.803223,587.141235 807.040344,582.658447 802.089050,582.505066 
	C793.545654,582.240479 786.543762,578.104370 779.189880,574.747070 
	C775.977478,573.280457 774.647034,570.549622 774.710144,567.037659 
	C774.829773,560.374573 774.812927,553.708435 774.984985,547.047058 
	C775.049805,544.536865 774.583252,541.901550 775.764954,539.154541 
	C777.484131,540.908569 776.863892,542.648926 776.909729,544.200378 
	C777.131226,551.693726 777.189819,559.191956 777.422852,566.684875 
	C777.521484,569.855896 779.048523,572.088623 782.396606,572.605713 
	C785.482483,573.082336 786.540710,570.793884 787.231445,568.560120 
	C788.371338,564.874146 790.369507,564.394653 794.043335,565.172974 
	C806.930542,567.903381 818.241516,573.685242 828.685913,581.524292 
	C831.634399,583.737305 833.019653,586.492188 833.199890,589.980896 
	C833.337280,592.640625 833.210754,595.313171 833.309753,597.975952 
	C833.665833,607.548889 838.586670,614.888794 846.218201,619.698914 
	C853.492310,624.283875 861.696045,627.421448 869.578918,631.002014 
	C873.878723,632.955261 879.842163,628.989441 879.408142,624.456909 
	C878.261230,612.479797 879.050171,600.487305 878.916748,588.504700 
	C878.879944,585.202026 878.212830,582.360657 876.386475,579.589600 
	C867.678223,566.376404 859.034790,553.119812 850.484192,539.804260 
	C848.400818,536.559875 845.819397,533.312744 846.913330,529.020386 
	C849.207336,528.090210 851.131592,528.856750 853.051453,529.254639 
	C860.091553,530.713684 866.739319,533.419678 873.512085,535.733093 
	C875.577332,536.438599 878.015869,537.320679 878.468384,533.894836 
	C878.972534,530.078003 879.192688,526.171692 877.014893,522.721252 
	C871.327332,513.710083 865.633484,505.686890 853.818726,502.548462 
	C844.881287,500.174316 838.440735,499.110229 833.167603,507.652832 
	C832.912903,508.065369 832.477295,508.372467 832.104553,508.704681 
	C830.997437,509.691345 830.662598,510.797180 831.169434,512.276428 
	C833.092407,517.888611 833.233521,523.755554 832.942810,529.556030 
	C832.648621,535.425720 834.687744,540.078491 838.169495,544.666138 
	C846.725098,555.939453 855.125244,567.327454 862.778809,579.266907 
	C869.006104,588.981323 866.995544,599.349487 866.260376,609.700623 
	C866.246582,609.895020 865.747925,610.054932 865.121704,610.459534 
	C861.682861,609.013977 858.002136,607.530518 854.374023,605.927673 
	C847.867310,603.053101 846.822693,600.820129 848.304871,593.310364 
	C849.496582,592.386536 850.483887,593.684082 851.593872,593.613342 
	C852.944580,593.527283 853.627014,592.623840 854.114136,591.498108 
	C854.587952,590.403076 854.260132,589.080322 853.291016,589.005737 
	C848.653687,588.648865 846.690796,583.771484 842.252563,582.926208 
	C833.948669,581.344788 828.299866,576.338257 825.109802,568.468689 
	C824.176208,566.165588 822.793762,564.044373 821.249756,561.195740 
M484.186371,475.190918 
	C483.784149,473.922485 483.569275,472.552521 482.946625,471.403564 
	C480.522308,466.930145 476.434235,469.489777 473.069977,469.345612 
	C470.210083,469.222961 470.355103,471.666962 470.329834,473.698151 
	C469.989868,501.002960 469.651825,528.307861 469.302277,555.612549 
	C469.265045,558.522034 469.579193,560.995667 473.469757,560.896545 
	C476.770782,560.812439 480.009399,560.979126 480.104980,556.288879 
	C480.159088,553.632080 480.578308,550.981567 480.607697,548.325684 
	C480.736847,536.669006 480.754639,525.011230 480.888123,513.354614 
	C480.911255,511.334900 480.405640,509.039795 482.419769,507.543823 
	C484.448730,508.153748 484.528076,509.827332 484.943939,511.187592 
	C489.322968,525.510376 493.662384,539.845337 498.006775,554.178650 
	C498.764008,556.677002 498.906372,559.633362 502.684601,559.577209 
	C506.191315,559.525085 507.902344,557.823608 508.995636,554.458069 
	C513.571411,540.372437 518.401611,526.368774 523.227417,512.365662 
	C523.871521,510.496552 523.968506,508.051727 526.448914,507.356476 
	C527.916016,508.446411 527.778992,509.782745 527.689514,511.125671 
	C526.735901,525.429321 527.468140,539.758484 527.033386,554.068176 
	C526.921326,557.757202 528.391479,559.100525 532.006470,559.098083 
	C535.676270,559.095642 537.900940,558.475464 537.977966,553.967957 
	C538.433350,527.335571 539.143127,500.707581 539.700317,474.076691 
	C539.752014,471.604767 540.683838,468.620514 536.513733,468.002106 
	C529.576782,466.973480 526.699341,467.903473 525.300964,472.036835 
	C519.007751,490.638092 512.698120,509.233826 506.322632,527.806946 
	C505.781219,529.384094 505.837982,531.557373 502.706085,532.222656 
	C496.625732,513.478699 490.537842,494.711517 484.186371,475.190918 
M162.243713,531.124817 
	C162.397491,561.931091 160.625488,592.693665 160.151764,623.485474 
	C160.038589,630.841553 169.484726,637.358337 176.180344,634.564758 
	C180.789032,632.641968 185.329254,630.555847 189.921707,628.593323 
	C197.940643,625.166443 203.790527,615.774963 203.452377,606.713501 
	C200.226761,607.057617 197.433441,608.586853 194.584900,609.913513 
	C190.360855,611.880798 186.274582,614.174683 181.962372,615.915100 
	C174.799530,618.805908 172.765533,617.415955 172.767807,609.886841 
	C172.771255,598.394775 172.407654,586.872681 173.112152,575.419495 
	C173.744400,565.140991 172.852448,554.764771 175.022186,544.561951 
	C175.716248,541.298279 177.057800,539.355469 180.378143,538.232056 
	C187.940704,535.673157 195.326965,532.598694 202.833496,529.867371 
	C212.821609,526.233093 211.646927,528.750183 211.702057,517.062378 
	C211.712753,514.795349 211.779755,512.767944 209.743759,510.751556 
	C201.995041,503.077637 193.784546,499.566101 183.480392,505.843445 
	C181.676086,506.942688 179.404480,507.259094 177.376678,508.012329 
	C175.805832,508.595886 174.194260,509.293182 173.328110,510.796051 
	C169.601852,517.261414 165.961823,523.776428 162.243713,531.124817 
M444.808136,533.594910 
	C443.625427,529.955444 442.443176,526.315796 441.259888,522.676514 
	C440.262390,519.608704 441.066650,517.987061 444.392090,516.712341 
	C450.056793,514.540833 455.042206,509.949768 455.211914,504.213623 
	C455.422119,497.109680 455.999054,489.942383 455.726562,482.788239 
	C455.486328,476.481567 447.895874,470.047302 441.560394,470.800323 
	C433.791962,471.723694 426.001801,472.748138 418.198273,472.987701 
	C413.373016,473.135834 412.089447,474.752930 412.011261,479.441559 
	C411.694489,498.424286 410.853973,517.397583 410.406494,536.379089 
	C410.176239,546.146484 410.366058,555.923767 410.366058,565.615845 
	C419.567474,566.951355 420.520935,566.041992 421.099396,557.951416 
	C421.920563,546.466553 421.626404,534.969238 421.967621,523.481567 
	C422.039978,521.046021 421.771820,518.252747 425.289581,517.700378 
	C428.871246,517.138062 429.360657,519.871094 430.050690,522.241638 
	C433.633759,534.550537 437.168610,546.873535 440.701691,559.196838 
	C442.030975,563.833374 444.062225,564.545959 450.983307,562.709106 
	C455.339752,561.552734 453.917847,558.502014 453.003052,555.908325 
	C450.454529,548.682678 447.717224,541.523682 444.808136,533.594910 
M718.784790,488.181702 
	C715.284607,484.902985 712.360962,480.308472 707.440674,479.559265 
	C698.745789,478.235291 689.905701,477.857269 681.123474,477.119019 
	C677.956360,476.852814 677.228333,478.729156 677.195679,481.485138 
	C676.866089,509.276703 676.452209,537.067322 676.134766,564.859009 
	C676.082764,569.408142 678.025513,570.770569 683.200562,570.841736 
	C687.606384,570.902283 686.787048,567.727600 686.820129,565.257507 
	C686.987183,552.773560 687.000427,540.287598 687.159363,527.803467 
	C687.185669,525.734375 686.945435,523.036072 690.199097,523.131470 
	C692.693054,523.204468 694.599731,524.335266 695.163635,527.143982 
	C697.982910,541.186523 702.267517,554.837158 706.394653,568.525940 
	C708.853088,576.679993 709.716431,577.194397 719.094238,576.934143 
	C719.290466,574.061157 718.193298,571.450195 717.396851,568.793457 
	C713.862732,557.003784 710.314392,545.218384 706.771851,533.431213 
	C705.743652,530.010132 705.990173,527.669617 710.116333,526.079773 
	C714.731628,524.301453 718.883240,520.198486 719.377197,515.630981 
	C720.332397,506.798615 720.781189,497.754486 718.784790,488.181702 
M255.970642,564.827637 
	C256.187531,561.315063 256.956604,557.912964 258.032135,554.573547 
	C263.446930,537.761414 269.987823,521.377441 276.778076,505.084930 
	C278.544098,500.847504 280.802460,496.753052 281.451019,492.074860 
	C273.694153,490.991180 268.860291,493.611145 266.545441,499.997437 
	C262.460449,511.267273 258.409271,522.549377 254.297028,533.809204 
	C253.755951,535.290771 253.646545,537.155151 251.519058,537.789246 
	C249.687210,536.634460 249.497391,534.492981 248.771790,532.724487 
	C244.854889,523.177795 241.049789,513.585327 237.141693,504.034973 
	C235.364532,499.692139 233.232620,499.378479 227.298431,501.801208 
	C222.638550,503.703644 225.454514,506.297302 226.515610,508.570526 
	C233.704102,523.971436 240.184052,539.658142 245.821777,555.692017 
	C246.486969,557.583923 246.787552,559.470581 246.722595,561.541504 
	C246.352066,573.356262 246.088226,585.175903 245.949142,596.995728 
	C245.893860,601.694275 247.322144,602.447144 251.825912,601.182922 
	C255.037766,600.281494 255.810867,598.284302 255.794632,595.245483 
	C255.742203,585.418457 255.877426,575.590393 255.970642,564.827637 
M636.830078,564.786560 
	C641.320801,565.608276 642.987671,563.974670 642.998840,559.203918 
	C643.044861,539.573425 643.387085,519.942261 643.775879,500.314392 
	C644.033264,487.321808 641.122986,485.980896 657.731995,487.484131 
	C660.937073,487.774200 664.004517,487.521942 663.793884,483.074097 
	C663.626953,479.549713 665.346802,475.223694 658.954590,474.888031 
	C646.170959,474.216797 633.416443,473.001648 620.646362,472.058472 
	C611.806335,471.405579 611.508667,471.712677 611.401123,480.582855 
	C611.395081,481.081696 611.388977,481.582489 611.423523,482.079529 
	C611.513855,483.379578 612.129150,484.455750 613.454346,484.538361 
	C618.322083,484.841827 623.229187,485.642670 627.931458,484.418915 
	C628.502258,481.903687 623.038818,478.529816 628.516357,478.111725 
	C634.697205,477.639923 641.023560,479.011414 647.275574,479.683746 
	C647.671265,479.726318 647.971558,480.655701 648.291687,481.135651 
	C646.799133,483.436981 644.527588,483.430176 642.439148,483.796082 
	C639.410278,484.326843 635.311157,481.799438 633.543091,484.794769 
	C632.152771,487.150055 633.139282,490.911499 633.081482,494.048523 
	C633.059998,495.213135 633.082458,496.378540 633.065552,497.543304 
	C632.771729,517.839539 632.468506,538.135742 632.185730,558.432129 
	C632.145996,561.282593 631.823792,564.364197 636.830078,564.786560 
M299.744141,585.112549 
	C308.464966,582.240479 317.422668,580.358276 326.428925,578.657593 
	C332.516876,577.507935 338.483429,571.874817 338.758972,566.486145 
	C339.141296,559.009644 338.885895,551.516968 339.625519,544.031067 
	C340.035583,539.881287 335.274597,536.065430 331.350708,536.990234 
	C320.982544,539.433838 310.650452,542.030701 300.304474,544.568481 
	C298.018372,545.129211 296.357330,546.195862 296.286194,548.898560 
	C295.992706,560.053284 295.649872,571.206787 295.306549,582.360107 
	C295.224518,585.025574 296.379517,586.068298 299.744141,585.112549 
M297.243927,514.537781 
	C297.222656,518.703918 297.220581,522.870239 297.173309,527.036072 
	C297.141998,529.797729 298.226593,531.133301 301.150757,530.408203 
	C309.558167,528.323486 318.035004,526.486389 326.362610,524.122375 
	C333.434082,522.114929 338.830505,514.230225 338.868530,506.880554 
	C338.895233,501.715118 338.871735,496.545013 339.088348,491.386108 
	C339.338776,485.421478 333.632477,480.748627 327.724060,482.041656 
	C319.270782,483.891632 310.804443,485.721100 302.279175,487.183075 
	C299.107239,487.727020 298.086121,489.108246 298.021515,492.087006 
	C297.866211,499.245270 297.522705,506.399475 297.243927,514.537781 
M354.533142,570.434998 
	C354.131805,573.798096 355.425079,575.093628 358.856140,574.233215 
	C361.435028,573.586487 364.080780,573.193298 366.708038,572.754944 
	C375.247437,571.330383 383.809875,570.035278 392.326752,568.488281 
	C396.320679,567.762817 397.709808,564.377075 396.677063,558.884460 
	C395.888763,554.692139 392.987274,556.610779 390.800873,556.966003 
	C383.900696,558.087280 377.018738,559.325378 370.143433,560.592651 
	C367.944885,560.997864 365.876617,561.098572 365.793427,558.205872 
	C365.678711,554.217651 365.831390,550.215637 366.031738,546.227600 
	C366.109924,544.670654 366.885437,543.287659 368.650635,543.004639 
	C370.310577,542.738342 371.049744,543.935059 371.535889,545.224426 
	C372.318878,547.301147 373.787079,547.899109 375.875824,547.607544 
	C380.817688,546.917725 385.774658,546.334473 390.713104,545.622375 
	C392.552887,545.357056 394.586426,544.884521 394.698792,542.571716 
	C394.913635,538.150757 395.621277,533.680176 394.337982,529.163330 
	C393.300629,529.109009 392.470123,528.933167 391.679871,529.044067 
	C380.971649,530.546631 370.269348,532.091431 359.564728,533.619751 
	C356.338440,534.080383 355.279510,535.926514 355.253052,539.149048 
	C355.169647,549.303650 355.590088,559.473206 354.533142,570.434998 
M598.360107,478.788025 
	C598.148743,475.390625 600.900085,470.504028 594.339355,470.200409 
	C583.379517,469.693329 572.408325,469.424744 561.450745,468.878754 
	C557.489563,468.681396 556.156372,470.360352 556.184998,474.134644 
	C556.249390,482.614990 556.216370,491.101837 555.936218,499.576569 
	C555.796265,503.810791 557.600220,504.921387 561.564941,505.000427 
	C571.696472,505.202484 581.820801,505.801086 591.945618,506.290314 
	C594.068420,506.392914 596.936340,507.281982 596.377502,503.741425 
	C595.942932,500.988037 599.157593,496.136383 592.690613,496.024963 
	C587.044128,495.927643 581.404968,495.433075 575.758362,495.307434 
	C567.617432,495.126343 567.845642,495.195129 567.631531,486.880188 
	C567.511108,482.206512 569.273743,480.592926 573.764404,480.930359 
	C580.059937,481.403442 586.374756,481.648315 592.685486,481.873047 
	C594.768494,481.947235 597.173706,482.384521 598.360107,478.788025 
M374.463043,506.975555 
	C367.067810,508.093048 366.384277,507.431274 367.161957,499.933075 
	C367.333496,498.278900 367.633270,496.619080 367.601593,494.967072 
	C367.546295,492.083099 368.849060,490.799957 371.692505,490.466339 
	C377.636322,489.768890 383.550690,488.824463 389.484100,488.033264 
	C396.826355,487.054260 397.727356,485.792786 396.812317,478.444519 
	C396.509552,476.013092 395.511292,475.429840 393.203033,475.708557 
	C382.308685,477.023926 371.401855,478.238739 360.492188,479.422424 
	C357.514252,479.745453 356.136261,481.081757 356.091339,484.231659 
	C355.946564,494.377960 355.575592,504.520813 355.341095,514.666199 
	C355.307495,516.119629 354.958862,517.681152 356.419495,519.404907 
	C367.511841,518.598389 378.801117,516.817200 390.005646,514.692017 
	C394.415985,513.855530 392.671539,509.520752 392.631226,506.658813 
	C392.586914,503.512665 389.979156,504.429749 388.088135,504.716095 
	C383.812073,505.363586 379.548981,506.096527 374.463043,506.975555 
M736.273682,520.503784 
	C736.200745,537.305359 736.126038,554.106995 736.056885,570.908569 
	C736.047302,573.236511 735.799377,575.602661 736.127136,577.884338 
	C736.732361,582.098083 740.476318,581.297607 743.210999,581.694580 
	C746.221069,582.131470 746.697632,579.903931 746.725037,577.512329 
	C747.066101,547.741699 747.380310,517.970642 747.798828,488.201111 
	C747.866211,483.411163 744.593018,483.594666 741.413757,483.256287 
	C737.687500,482.859711 736.969421,484.918549 736.932129,488.083191 
	C736.808472,498.558228 736.517761,509.031250 736.273682,520.503784 
z"/>
<path fill="#000000" opacity="1.000000" stroke="none" 
	d="
M445.984253,635.978760 
	C450.997620,638.953369 450.291962,644.320374 450.894470,648.838989 
	C452.223236,658.803955 453.036652,659.669067 462.887085,657.932739 
	C463.215271,657.875000 463.543945,657.819885 463.872925,657.766785 
	C466.660339,657.316467 470.052856,657.419983 470.394104,660.472229 
	C470.720306,663.389893 467.148956,663.900330 464.754913,664.037109 
	C460.774536,664.264465 456.753815,664.154480 452.771271,663.879578 
	C448.027405,663.552063 443.665100,666.990234 444.442230,671.496094 
	C444.920715,674.270569 443.847961,675.820923 442.129120,677.562195 
	C444.984680,679.417175 447.983154,678.345520 450.646851,679.096985 
	C452.901367,679.733032 456.356750,679.525330 455.677551,683.141663 
	C455.107452,686.177002 452.373169,686.509338 449.651428,685.787231 
	C446.700562,685.004211 443.691345,685.354858 440.701691,685.248718 
	C437.126190,685.121826 435.186920,686.900269 434.240173,690.198853 
	C436.425079,691.906189 439.154144,691.361938 441.395203,692.380981 
	C442.630676,692.942749 443.919830,693.613464 443.657684,695.255554 
	C443.449127,696.562073 442.336060,697.187195 441.126068,697.309875 
	C438.149017,697.611755 435.156952,697.996765 432.175354,697.962708 
	C428.720764,697.923279 426.006927,698.926941 424.202759,701.997253 
	C424.610901,703.858643 426.509674,703.721313 427.598755,704.621887 
	C428.604004,705.453125 430.066071,706.061951 429.456116,707.729370 
	C428.912537,709.215210 427.495239,709.369446 426.123077,709.413391 
	C423.738770,709.489807 421.527496,708.714172 419.311401,707.988586 
	C417.356232,707.348450 415.426178,706.725098 414.061310,709.025452 
	C418.033447,713.623840 418.033447,713.623840 413.333710,716.667419 
	C418.434967,719.619629 423.179932,722.557251 428.094025,725.177795 
	C455.292419,739.681519 481.953064,755.128052 508.338562,771.046082 
	C511.985260,773.246155 514.744812,773.262329 518.321716,771.056458 
	C530.352905,763.637024 542.563721,756.508911 555.503235,748.793945 
	C549.977051,745.567017 552.207153,742.846497 555.238831,740.363098 
	C557.811890,738.255249 560.360046,735.991028 563.264282,734.443237 
	C567.470703,732.201294 569.729553,729.517212 567.993835,724.549500 
	C567.522217,723.199829 567.671326,721.633179 567.495422,719.733215 
	C562.422302,720.603699 558.932556,723.740051 555.105713,726.189026 
	C553.283997,727.354797 551.303162,729.109558 549.485779,726.584717 
	C547.807861,724.253662 549.676331,722.512207 551.315735,721.070190 
	C554.743835,718.054688 558.896667,716.182617 563.062988,714.569031 
	C567.385376,712.894897 568.722107,709.877747 568.672546,705.179565 
	C563.710754,705.729736 560.096436,708.972351 555.785278,710.271057 
	C553.215271,711.045288 549.883118,714.396057 548.101929,710.287659 
	C546.486267,706.561035 550.871033,706.067688 553.185181,704.907471 
	C556.452209,703.269531 559.786804,701.388123 563.304749,700.707947 
	C570.509155,699.314941 572.240784,694.237793 573.222534,687.987610 
	C570.390015,686.751953 567.974426,688.522644 565.446777,688.736328 
	C563.294678,688.918335 561.157410,689.348511 559.004700,689.427551 
	C557.154175,689.495667 555.702942,688.604248 555.554138,686.577576 
	C555.405701,684.556519 557.054016,684.188782 558.537659,683.901367 
	C562.623901,683.109985 566.701843,682.216492 570.824829,681.690369 
	C575.330811,681.115295 578.671570,679.358337 580.057800,674.718994 
	C580.663696,672.691406 582.709167,671.321777 582.994507,668.710632 
	C578.073181,667.730103 573.165344,667.371155 568.231323,667.169800 
	C566.274109,667.089966 563.661438,667.314758 563.841309,664.449951 
	C564.010498,661.754517 566.621643,661.163391 568.766479,661.315430 
	C572.240723,661.561646 575.664612,662.442139 579.132935,662.863708 
	C588.782898,664.036682 591.625427,662.503967 596.940186,653.384033 
	C590.381470,649.694946 581.900391,651.036865 575.627136,645.992798 
	C577.639282,642.469116 579.970764,641.762268 583.090576,642.970581 
	C588.800598,645.181885 594.541138,647.314209 600.510376,649.080688 
	C586.390747,637.374084 570.285950,628.464722 555.834167,617.283752 
	C556.982605,614.913086 558.882629,615.676331 560.370605,615.698975 
	C611.427856,616.476318 662.078674,621.065552 712.039185,632.037292 
	C717.122192,633.153564 717.637512,634.396423 714.494141,638.581238 
	C707.893372,647.369202 701.298950,656.165283 694.500061,664.799072 
	C692.408630,667.454956 692.385254,669.169678 695.005981,671.431946 
	C729.689697,701.372192 764.193420,731.539307 802.429565,757.007690 
	C808.519653,761.064148 814.950439,764.624817 821.332703,768.221313 
	C825.562256,770.604797 829.857971,771.998291 835.103882,771.003052 
	C842.179077,769.660767 847.634277,773.893738 850.072449,781.311829 
	C854.569397,794.993591 843.106079,815.805908 829.117188,819.357178 
	C818.044189,822.168213 808.113281,815.203064 808.009155,803.844482 
	C807.957825,798.242859 805.934570,794.513672 801.892273,791.006287 
	C777.325562,769.690796 751.343628,750.214478 724.865356,731.379456 
	C714.550903,724.042358 704.110291,716.882263 693.705933,709.672119 
	C691.401367,708.075073 689.189880,706.259766 686.052063,705.631348 
	C684.083679,708.568481 683.917542,712.081604 684.455627,715.130859 
	C686.986816,729.476257 680.122131,737.147400 668.083191,744.107239 
	C630.165527,766.027649 593.390869,789.890686 555.387085,811.702332 
	C543.687500,818.417053 532.098633,825.345642 520.714294,832.577942 
	C516.244690,835.417419 512.619873,835.207214 508.290955,832.606567 
	C477.875366,814.334106 447.346710,796.250000 416.928925,777.981140 
	C394.795624,764.687927 372.868774,751.048401 350.641083,737.916687 
	C345.196442,734.700134 342.843964,730.629700 342.978149,724.592468 
	C343.070679,720.429626 342.969604,716.260986 342.884857,712.096375 
	C342.848206,710.293823 343.210754,708.107300 341.422913,707.058899 
	C339.537872,705.953613 337.988007,707.670044 336.501526,708.602356 
	C322.943085,717.105530 309.989960,726.499023 297.105377,735.961548 
	C275.353455,751.936340 254.057220,768.507202 233.775131,786.339966 
	C231.523911,788.319336 229.364166,790.402710 227.114426,792.383911 
	C224.182739,794.965576 222.847610,798.018005 223.037567,802.065979 
	C223.843185,819.233398 207.496597,822.524231 197.420258,816.742310 
	C186.279266,810.349609 179.305023,792.785339 183.260376,780.605896 
	C185.203323,774.623169 190.177582,770.324585 196.864853,770.873657 
	C205.034622,771.544434 211.429550,768.220581 217.716263,764.060059 
	C243.592239,746.935547 268.004730,727.876343 291.613892,707.776062 
	C305.057159,696.330933 318.302887,684.652832 331.806488,673.280273 
	C335.594788,670.089844 335.815887,667.730591 332.508636,663.893921 
	C326.128632,656.492737 320.467682,648.497620 314.419495,639.244629 
	C368.364136,624.836609 422.295105,617.626953 477.225616,616.529175 
	C465.474426,620.580261 455.783203,627.782227 445.860718,635.827881 
	C441.058960,637.850037 437.764008,640.986816 434.127106,643.611328 
	C431.729492,645.341553 430.984192,647.140869 432.955536,649.849854 
	C435.362885,653.157959 435.976227,657.195190 436.705994,661.134338 
	C437.015228,662.803467 437.532898,664.670715 435.093170,665.040833 
	C432.964233,665.363892 432.311005,663.733948 431.822693,662.020447 
	C431.002502,659.142395 429.991730,656.314697 429.264618,653.414856 
	C428.112061,648.818359 425.830200,648.918823 422.517517,651.398438 
	C418.785065,654.192139 414.929260,656.827881 411.053619,659.422546 
	C394.027191,670.821838 376.974182,682.181458 359.930756,693.555298 
	C357.530853,695.156860 355.145935,696.784302 355.505493,700.204163 
	C355.905273,704.006958 356.445465,707.797668 356.744171,711.607727 
	C357.032104,715.280640 358.901520,717.502319 362.052368,719.380615 
	C393.964264,738.403687 425.792999,757.566223 457.654175,776.674438 
	C474.513275,786.785522 491.374084,796.893982 508.274139,806.936279 
	C511.235077,808.695801 513.896912,810.173950 517.838501,807.808838 
	C564.698242,779.691284 611.463318,751.398376 658.844421,724.180664 
	C669.275574,718.188477 672.550842,711.029907 671.947388,700.213806 
	C671.769897,697.032288 670.787415,694.896851 668.108215,693.241394 
	C649.111145,681.502808 630.936768,668.526184 612.371338,656.137268 
	C610.958008,655.194092 609.530640,653.949768 607.411194,654.257568 
	C608.487000,658.424927 609.502930,662.259521 610.457947,666.109131 
	C610.845581,667.671570 611.755371,669.643677 609.362671,670.254211 
	C607.215088,670.802063 606.616760,668.900208 606.031494,667.311584 
	C604.915894,664.283569 604.640564,660.825562 601.566589,658.384399 
	C599.869446,660.666016 595.287903,661.596863 598.754944,665.458984 
	C601.975403,669.046326 602.506836,673.062500 601.844849,678.463928 
	C599.842407,676.187805 598.026428,679.635254 596.130371,678.131470 
	C594.882019,676.365479 596.777100,675.481873 596.646851,674.160645 
	C596.413452,671.792175 596.202148,669.117126 593.877197,668.103455 
	C591.177551,666.926331 590.143188,669.729126 589.108826,671.411621 
	C587.667908,673.755432 585.834595,676.031860 585.699341,679.165466 
	C587.645752,680.201111 589.650085,681.050232 591.403503,682.262512 
	C593.102051,683.436890 595.569519,684.705261 594.011841,687.362122 
	C592.414673,690.086243 590.194336,689.115723 587.994202,687.783813 
	C582.298035,684.335388 582.611755,684.553040 579.759583,690.154541 
	C577.437683,694.714661 579.742065,696.053467 583.292542,697.278992 
	C585.193726,697.935242 587.171631,698.629639 587.204346,701.189148 
	C587.224915,702.800476 586.715210,704.228638 585.156555,704.878479 
	C583.050659,705.756653 581.713623,704.399841 580.475708,702.960693 
	C579.046204,701.298889 577.247192,701.338074 576.342468,703.068542 
	C574.811523,705.996826 573.359497,709.422241 574.859863,712.577698 
	C576.086609,715.157715 579.035400,713.541199 581.253967,713.520264 
	C581.583130,713.517151 581.910767,713.413025 582.240051,713.361511 
	C584.356323,713.030212 586.655212,712.997864 586.835327,715.704590 
	C587.017883,718.446411 584.818115,719.251892 582.417969,719.291992 
	C581.422729,719.308594 580.419922,719.215210 579.429199,719.098572 
	C574.207825,718.483765 573.863037,718.825500 575.058105,723.893677 
	C575.386963,725.288452 575.079712,726.984985 576.724060,727.944275 
	C579.346436,727.892273 581.044800,725.632141 583.419006,724.934143 
	C584.958618,724.481384 586.828430,723.417847 587.780640,725.564880 
	C588.603882,727.421082 586.745728,728.112183 585.555115,728.913025 
	C583.281616,730.441956 580.958435,731.896912 578.655884,733.382568 
	C578.918396,733.735046 579.180908,734.087524 579.443359,734.440002 
	C583.736450,731.949829 588.031006,729.462280 592.322266,726.968933 
	C600.098633,722.450745 607.853821,717.895691 615.666138,713.440552 
	C617.035339,712.659729 618.694946,711.364746 620.236755,712.807861 
	C621.928284,714.390869 620.707581,716.222290 620.022583,717.883484 
	C618.936096,720.518555 616.648621,721.948547 614.335632,723.294983 
	C582.659424,741.734253 551.625122,761.252502 519.828857,779.497314 
	C515.135925,782.190186 511.773346,782.377747 507.155121,779.635193 
	C481.658020,764.493896 455.961975,749.688110 430.386871,734.677429 
	C423.063049,730.378967 415.433533,726.570923 408.584656,721.491577 
	C406.441864,719.902344 403.300018,717.668823 404.635193,715.305176 
	C405.854950,713.145813 404.496796,711.673096 404.890137,710.099243 
	C410.897644,706.942749 411.484863,704.251099 407.574005,697.985535 
	C405.114258,700.051575 405.065765,703.665649 402.645203,706.155212 
	C400.261719,702.279419 400.062836,698.929749 402.713074,695.645020 
	C406.059326,691.497559 409.567993,687.473999 412.769714,683.218750 
	C417.631744,676.756897 423.219147,670.524292 421.695251,661.403076 
	C421.639618,661.070007 422.176422,660.637878 422.673798,659.901672 
	C426.564392,662.599243 428.126862,667.134583 431.511688,670.023560 
	C435.581024,673.496643 437.773010,673.045166 439.496094,668.050171 
	C439.866425,666.976562 439.718353,665.692078 440.979767,665.069397 
	C445.699860,662.739685 445.820892,658.255493 445.946960,653.949707 
	C446.122192,647.964172 445.986725,641.969482 445.984253,635.978760 
M678.574402,672.903809 
	C697.436096,688.599060 716.711914,703.753906 736.801086,717.862366 
	C736.377625,716.830627 735.676147,716.148743 734.922363,715.530762 
	C715.992065,700.013062 697.181885,684.324707 679.574280,667.325928 
	C665.686279,653.918213 652.596863,639.683472 639.148499,625.820190 
	C637.792725,624.422668 636.664490,622.053955 634.406982,622.754578 
	C630.136169,624.079895 625.607239,623.845215 620.317139,625.208069 
	C639.509338,641.925354 659.083374,656.809937 678.574402,672.903809 
M350.915863,672.411133 
	C355.674194,668.505127 360.446899,664.616394 365.187958,660.689453 
	C375.951630,651.774109 387.356720,643.632751 397.510284,633.985840 
	C398.955841,632.612488 401.107880,631.523682 400.981750,629.417175 
	C392.488922,624.752441 386.733917,627.313171 380.618225,634.061218 
	C356.226044,660.975586 329.625275,685.650513 301.887543,709.098572 
	C296.615997,713.554810 291.462036,718.150146 286.253845,722.681274 
	C308.257629,706.853455 329.414062,689.989319 350.915863,672.411133 
M841.760071,786.429626 
	C841.574829,778.481750 839.039917,775.924988 833.732788,778.656006 
	C838.143860,784.639282 835.098877,789.941223 832.084839,795.214661 
	C829.127625,800.388794 824.611145,804.303101 820.050171,808.541199 
	C828.556580,811.859680 840.404175,799.576599 841.760071,786.429626 
M197.428574,801.040833 
	C200.724976,805.144897 203.610916,809.946899 210.172165,809.357666 
	C210.384491,806.179993 208.488098,805.075500 207.231842,803.633728 
	C203.032043,798.813721 199.533905,793.566956 197.520096,787.461304 
	C195.335739,780.838623 196.227051,779.586243 203.047455,779.365906 
	C202.338470,779.113403 201.707153,778.909363 201.091278,778.666077 
	C193.639923,775.723389 190.363464,778.193420 191.315323,786.228271 
	C191.932877,791.441223 193.821609,796.224609 197.428574,801.040833 
M415.801239,688.288330 
	C414.979279,689.708374 413.988953,691.059265 413.371155,692.563171 
	C412.159119,695.513306 414.517578,697.498230 415.755676,699.664490 
	C416.635315,701.203552 418.163055,700.338928 419.159393,699.457214 
	C420.901276,697.915649 424.140015,697.055054 423.192902,693.961792 
	C422.152557,690.564148 420.372559,687.393005 418.918427,684.131287 
	C416.833862,684.758240 416.784851,686.451782 415.801239,688.288330 
M431.617096,677.829163 
	C429.626801,676.787231 428.244965,674.674133 425.196960,674.315002 
	C425.292175,679.424744 424.223877,684.418335 427.704315,690.038879 
	C429.737213,685.655396 435.243896,683.835510 431.617096,677.829163 
M570.195312,736.400818 
	C567.005005,738.629883 563.453430,740.438538 560.602356,744.885986 
	C564.783020,742.449402 568.037354,740.652954 571.177734,738.675537 
	C572.530273,737.823975 572.423035,737.653687 570.195312,736.400818 
z"/>
<path fill="#000000" opacity="1.000000" stroke="none" 
	d="
M220.974197,313.015076 
	C224.113770,308.130188 225.935867,302.462250 229.866943,298.048065 
	C231.194107,296.557831 232.433136,294.973633 233.875046,293.603516 
	C242.256439,285.639465 247.122757,285.104858 256.115662,292.187927 
	C277.837463,309.296692 299.382111,326.631012 320.945251,343.940308 
	C328.296936,349.841675 335.490631,355.939941 343.233582,361.449463 
	C341.080444,359.277710 338.991760,357.037354 336.764282,354.944733 
	C311.996338,331.675842 287.205536,308.431244 262.426880,285.173706 
	C261.090729,283.919586 259.715881,282.688171 258.521759,281.305634 
	C256.770905,279.278503 253.382919,277.443909 255.646744,274.258545 
	C257.694153,271.377747 261.184418,270.730865 264.679199,271.459137 
	C267.212860,271.987061 269.141418,273.640137 270.985077,275.350983 
	C295.533356,298.130554 319.212250,321.811462 343.325806,345.041016 
	C363.737213,364.704102 383.002960,385.450073 402.592438,405.895508 
	C406.127869,409.585449 409.561890,413.368652 412.468536,418.487183 
	C406.167145,419.412201 400.551117,420.395966 394.896088,421.034119 
	C382.492645,422.433807 370.060333,423.579102 357.659363,424.998840 
	C353.485840,425.476593 350.679352,423.040894 347.808685,420.904297 
	C339.125366,414.441376 330.569824,407.805481 322.009674,401.178650 
	C290.004639,376.401917 258.024994,351.592438 226.015228,326.821808 
	C221.656403,323.448761 218.379303,319.757111 220.953430,313.364990 
	C220.999527,312.986206 220.974197,313.015076 220.974197,313.015076 
z"/>
<path fill="#000000" opacity="1.000000" stroke="none" 
	d="
M675.010254,371.014648 
	C683.193787,363.975983 691.347961,356.902802 699.566406,349.905090 
	C722.770813,330.147400 746.353210,310.850281 770.613586,292.401794 
	C780.997986,284.505096 784.955994,285.047699 794.262634,294.247498 
	C799.714172,299.636475 803.564758,305.963348 806.076843,313.128754 
	C808.418152,319.807037 807.669495,322.135986 802.041565,326.438812 
	C788.415466,336.856689 774.706421,347.167206 761.149414,357.674164 
	C736.673523,376.643433 712.165283,395.574921 687.934753,414.854218 
	C681.036926,420.342590 674.369263,422.892700 665.208069,421.522583 
	C650.273987,419.289032 635.094421,418.698120 620.019409,417.402618 
	C618.894226,417.305908 617.646118,417.506592 616.635742,416.020935 
	C618.048401,412.201355 621.316833,409.526306 624.071716,406.592224 
	C654.961853,373.692871 686.591125,341.522003 719.286621,310.407288 
	C730.624939,299.617188 741.914307,288.775574 753.190369,277.920471 
	C755.740173,275.465881 758.533325,273.427643 761.764343,271.977295 
	C764.203064,270.882568 766.621948,270.966370 769.025391,272.020081 
	C773.023743,273.773041 773.669861,276.157990 770.529236,279.184509 
	C763.936951,285.537109 757.037537,291.570374 750.423584,297.901154 
	C725.283691,321.964508 699.792603,345.664642 674.826843,370.806152 
	C669.854126,375.476837 665.354126,379.739563 660.854065,384.002319 
	C666.015686,380.111969 671.011475,376.068237 675.010254,371.014648 
z"/>
<path fill="#000000" opacity="1.000000" stroke="none" 
	d="
M221.008087,312.968750 
	C216.600784,320.523682 216.664551,322.450562 223.311935,327.627655 
	C242.358597,342.461578 261.599976,357.045227 280.720123,371.785187 
	C293.505402,381.641510 306.195831,391.620789 318.964508,401.498810 
	C326.859528,407.606476 334.845123,413.597107 342.733246,419.713531 
	C344.239807,420.881714 346.175568,421.855255 346.382751,425.179626 
	C337.366821,424.921936 329.150818,429.615265 319.736237,422.421692 
	C285.846405,396.526581 252.068390,370.501404 218.827042,343.779785 
	C215.714020,341.277313 212.789276,338.537872 209.813766,335.867676 
	C203.307022,330.028534 200.605103,322.837067 202.840271,314.273926 
	C209.296402,289.540039 222.893768,270.558289 247.235229,260.692902 
	C257.961090,256.345795 267.291870,259.294739 275.734222,266.897980 
	C299.145599,287.982483 321.269958,310.397980 343.963531,332.226013 
	C370.045258,357.312897 394.291351,384.131866 419.071869,410.449554 
	C420.812622,412.298279 424.780884,414.746185 422.265411,417.210602 
	C419.500031,419.919891 416.877014,415.937439 415.015808,414.003723 
	C401.151093,399.598572 387.597260,384.894012 373.718079,370.503052 
	C341.328339,336.918823 308.274994,304.001343 274.239380,272.075684 
	C268.292938,266.497864 261.831024,265.075439 254.039200,267.528229 
	C239.688141,272.045837 229.669846,281.353882 222.105133,295.785370 
	C228.252228,289.984406 232.725449,284.242004 240.000290,281.967987 
	C232.376160,291.359436 224.700333,300.564240 221.023666,312.641846 
	C220.974197,313.015076 220.999527,312.986206 221.008087,312.968750 
z"/>
<path fill="#000000" opacity="1.000000" stroke="none" 
	d="
M678.415039,344.415253 
	C656.527222,367.316406 634.899231,389.977356 613.246155,412.614258 
	C611.012207,414.949615 608.893677,417.812073 604.833313,416.099792 
	C604.698792,413.411835 606.631348,412.072174 608.026428,410.574310 
	C627.443542,389.726654 646.398926,368.415009 666.503662,348.250153 
	C693.440063,321.233185 721.174683,295.006744 748.773865,268.658051 
	C761.020508,256.966370 772.242920,255.530579 787.003296,263.975677 
	C804.876282,274.201752 817.531128,289.071106 823.595215,309.000519 
	C827.816467,322.873535 825.204163,330.007263 813.977539,339.261139 
	C780.938538,366.494476 746.688843,392.181396 713.117737,418.729828 
	C703.786743,426.108856 694.768372,425.159637 684.801697,422.864990 
	C684.581665,419.905609 686.644653,419.049683 688.125916,417.862915 
	C725.824219,387.658813 764.325073,358.496399 802.924072,329.461609 
	C810.512695,323.753296 810.887207,322.847992 807.677917,314.021667 
	C803.708008,303.103180 798.216431,293.099213 789.406555,285.223663 
	C788.917114,284.786194 788.479675,284.270660 788.108948,283.729218 
	C787.947449,283.493256 788.015747,283.099854 787.869080,281.790833 
	C796.101624,285.213684 800.593384,291.980652 805.732910,297.985870 
	C806.975281,296.778839 806.020691,295.862213 805.634338,295.167450 
	C797.772278,281.028595 786.895691,270.693451 770.548523,267.024597 
	C764.008667,265.556885 758.414307,266.679474 753.392029,271.171448 
	C737.984314,284.952332 723.394287,299.581085 708.717285,314.118988 
	C698.653381,324.087555 688.681030,334.148499 678.415039,344.415253 
z"/>
<path fill="#000000" opacity="1.000000" stroke="none" 
	d="
M491.054657,350.803192 
	C493.896149,352.992676 499.278656,354.121979 496.764832,358.302460 
	C494.563049,361.964050 490.866455,358.004913 487.926788,357.058716 
	C485.169861,356.171326 482.922028,353.834595 479.138489,353.911652 
	C480.234009,361.374786 480.322906,368.630280 486.861542,373.813629 
	C490.494812,376.693848 493.672150,380.178894 496.871735,383.564545 
	C498.607086,385.400848 500.289398,387.818695 498.006561,390.165070 
	C495.471375,392.770813 493.454895,390.402893 491.727875,388.653961 
	C488.933105,385.823761 486.287231,382.846527 482.923279,379.226257 
	C480.847900,387.712524 479.534149,394.762085 485.915710,400.966339 
	C488.514618,403.493042 491.170776,406.121429 492.808899,409.470703 
	C493.457306,410.796417 494.243927,412.400116 492.716766,413.563690 
	C491.326599,414.622925 489.601990,414.085754 488.610535,412.960846 
	C485.867218,409.848083 483.363037,406.524506 480.352539,403.670044 
	C477.012268,405.558258 477.245239,407.886475 476.460419,409.612732 
	C475.776794,411.116455 475.315063,412.770599 474.385437,414.099548 
	C473.395294,415.515137 471.745117,416.382904 470.014618,415.545502 
	C468.219299,414.676758 468.939606,413.037659 469.318970,411.588989 
	C469.689117,410.175476 470.724945,408.912720 470.238739,406.932556 
	C465.769592,407.385712 461.879395,409.703369 457.677551,410.938049 
	C456.314148,411.338654 454.765106,412.504669 453.604736,410.825592 
	C452.486084,409.206818 453.416290,407.630585 454.323547,406.199554 
	C455.450897,404.421356 457.132507,403.431915 459.130280,402.861786 
	C461.049652,402.314087 462.955017,401.708679 464.841644,401.056519 
	C473.864136,397.937622 476.115997,393.750641 474.020477,383.694763 
	C470.530792,383.526459 468.661469,386.585602 465.944153,387.878357 
	C464.318939,388.651520 462.631866,390.190643 460.964996,388.528992 
	C459.064148,386.633972 460.115173,384.380737 461.291016,382.558319 
	C463.485199,379.157684 467.667664,378.504669 470.689270,376.174011 
	C475.490631,372.470490 476.187897,369.303558 472.862457,363.807465 
	C470.242798,364.757568 469.035156,367.386810 466.900787,368.892426 
	C465.208160,370.086395 463.483032,372.284637 461.497223,369.458466 
	C459.911316,367.201447 459.509094,364.886841 462.277191,362.983612 
	C464.057953,361.759186 465.809326,360.463348 467.422760,359.029480 
	C472.645477,354.387970 472.986389,350.634979 468.702087,343.982117 
	C466.269684,346.673309 465.417572,350.154053 463.525055,352.988953 
	C462.428833,354.631012 461.142975,356.743561 458.795349,355.391388 
	C456.394867,354.008789 456.917603,351.684692 458.155029,349.696167 
	C460.719299,345.575256 462.937164,341.317749 464.282776,336.625885 
	C465.204651,333.411438 464.289703,331.198700 460.844269,329.730621 
	C459.472626,333.151489 459.306305,336.767853 457.321777,339.685944 
	C456.132080,341.435303 454.704987,343.077362 452.438843,342.038269 
	C450.098511,340.965118 450.376373,338.708344 451.291046,336.841736 
	C453.019440,333.314758 453.370697,329.535004 454.014130,325.758362 
	C454.828857,320.976593 453.108215,317.723328 448.472137,315.080383 
	C448.039795,318.797638 447.562286,322.166382 447.281281,325.551483 
	C447.054840,328.279175 445.697815,330.256439 443.053009,330.160034 
	C439.924347,330.046021 441.202179,327.519165 441.203766,325.602112 
	C441.207855,320.665222 440.949066,315.727539 440.761902,310.791412 
	C440.712616,309.490082 440.837250,308.065460 438.930817,307.207794 
	C436.794189,310.326141 436.165710,314.114227 434.726227,317.534424 
	C433.901367,319.494324 433.011139,321.428741 430.389801,320.241119 
	C427.864594,319.097107 427.519135,317.275238 429.185577,315.006165 
	C431.348602,312.060944 431.886139,308.692902 431.933319,305.086700 
	C431.979858,301.529022 430.517303,299.886169 426.826416,299.792328 
	C425.796448,302.719666 426.061279,305.880188 424.424072,308.471222 
	C423.293793,310.260010 422.427307,312.838867 419.642975,311.447968 
	C417.238220,310.246674 418.261566,308.160492 419.005859,306.214050 
	C420.319672,302.778259 421.330750,299.269073 419.095337,294.879181 
	C417.824646,298.266357 418.120026,301.595520 415.879333,303.851898 
	C414.586853,305.153473 413.262970,306.874634 411.226532,305.730377 
	C408.873169,304.408142 410.916748,302.914581 411.466492,301.530670 
	C412.264191,299.522461 413.108704,297.526978 412.398712,295.322723 
	C406.442261,294.573364 404.888428,292.894989 406.206512,288.741760 
	C407.158813,285.741089 409.225586,284.274261 411.767639,286.465668 
	C414.500000,288.821198 417.007111,288.162445 419.584686,287.015076 
	C423.380127,285.325653 426.994720,283.233582 430.765839,281.484528 
	C433.168732,280.370056 435.722656,279.501190 438.125641,282.200195 
	C435.412231,286.523254 430.350677,287.420258 426.458038,291.147491 
	C434.237122,294.423279 440.191559,301.569458 449.802704,297.942352 
	C452.556915,296.902954 455.642181,296.572784 458.609619,296.326569 
	C460.526215,296.167542 462.389069,297.240173 462.585358,299.358704 
	C462.801666,301.693848 460.560028,301.790253 459.045776,301.971283 
	C455.112274,302.441406 451.115997,302.439270 446.838593,303.865753 
	C448.966675,306.509430 450.951050,307.784607 454.470062,307.147980 
	C459.352478,306.264740 464.361542,305.255615 469.352295,306.146973 
	C472.076843,306.633575 476.395447,306.445038 475.635437,310.731323 
	C474.967316,314.499512 471.147156,313.420288 468.489258,312.908203 
	C464.972504,312.230652 461.637238,312.321106 457.748413,313.594727 
	C461.430786,318.875275 463.872040,324.509155 471.577759,324.397156 
	C476.548004,324.324890 481.438965,325.888947 486.056183,327.899567 
	C487.928650,328.714996 489.959534,329.825867 489.124298,332.303040 
	C488.279816,334.807617 485.939026,334.270142 483.985016,333.940125 
	C480.323669,333.321686 476.848175,330.996490 472.321106,332.900391 
	C473.877319,338.179657 474.732971,343.497131 480.831818,345.866089 
	C484.234253,347.187714 487.431427,349.037811 491.054657,350.803192 
z"/>
<path fill="#000000" opacity="1.000000" stroke="none" 
	d="
M596.745239,308.975098 
	C600.157776,309.064392 603.421143,312.453430 606.329163,308.192474 
	C604.362366,305.450409 601.069397,305.804718 598.447815,304.720642 
	C596.445862,303.892792 593.023071,303.789124 594.168213,300.504120 
	C595.281250,297.311127 598.230469,298.472839 600.607239,299.295502 
	C604.224792,300.547607 607.823425,301.855682 611.415222,303.180511 
	C613.716675,304.029449 615.564270,303.489258 617.358521,301.535553 
	C614.865723,298.718933 611.580994,298.073975 608.480774,297.033661 
	C606.716187,296.441528 604.802612,295.671295 605.350952,293.276337 
	C605.790039,291.358551 607.455505,290.933014 609.259094,290.870728 
	C611.795410,290.783173 614.031921,291.014496 616.189514,292.845490 
	C621.010681,296.936920 627.159363,299.136200 631.871826,303.442657 
	C632.851685,304.338074 633.990540,305.127441 634.742737,306.187958 
	C635.859497,307.762451 635.499878,309.455597 634.076843,310.658447 
	C632.745728,311.783569 631.573730,310.833069 630.607666,309.855743 
	C628.994995,308.224243 627.561462,306.354431 624.770996,305.974640 
	C623.537476,308.597656 624.373657,311.181793 624.696289,313.742096 
	C624.882751,315.221680 625.386353,316.917206 623.651855,317.724152 
	C621.960083,318.511261 620.899780,317.137054 619.882263,316.037354 
	C619.544800,315.672607 619.311829,315.211060 618.974243,314.846375 
	C617.732971,313.505402 617.198914,310.388672 614.701111,311.766571 
	C611.872925,313.326691 613.769043,315.858887 614.624451,317.932465 
	C615.195068,319.315674 615.925842,320.633667 616.601318,321.972595 
	C617.365112,323.486389 617.440613,324.924377 615.838196,325.895721 
	C614.346802,326.799774 612.994446,326.270111 611.740601,325.193939 
	C609.883728,323.600220 609.229797,320.896362 607.036682,319.701599 
	C604.619690,320.781097 605.145081,322.514740 605.656128,324.067627 
	C606.279297,325.961334 607.200745,327.754639 607.897217,329.627075 
	C608.627441,331.590027 610.214722,333.990784 607.506897,335.344666 
	C604.451050,336.872589 603.669556,333.834839 602.473511,331.963074 
	C601.510620,330.456116 601.150024,328.498505 598.949402,327.551239 
	C596.522705,329.094055 595.531799,330.860687 598.058105,333.345978 
	C600.554077,335.801331 601.356628,339.095825 602.320984,342.253235 
	C602.915894,344.200928 602.020447,345.948761 600.142700,346.814056 
	C598.070496,347.768860 597.163147,346.147034 596.264038,344.696777 
	C595.051270,342.740570 594.294373,340.443390 592.193420,339.146271 
	C587.108704,342.999695 586.583313,346.866943 590.524536,351.568359 
	C592.129822,353.483276 593.910583,355.273804 594.857117,357.640900 
	C595.532349,359.329346 595.412415,361.025757 593.920654,362.189056 
	C592.141479,363.576508 590.826355,362.310547 589.659912,361.041473 
	C587.986938,359.221252 586.730896,356.992493 584.502625,355.717346 
	C580.539612,359.961029 580.598328,362.320770 584.719543,365.999390 
	C586.580933,367.660828 588.616150,369.161377 590.284424,370.996704 
	C592.233276,373.140625 591.564819,375.395935 589.574158,377.140564 
	C587.393250,379.051849 585.992676,377.325195 584.614441,375.778748 
	C583.102051,374.081757 582.029175,371.888275 579.633484,371.121765 
	C575.141968,379.695801 576.515930,384.803284 584.360107,389.116547 
	C585.667358,389.835358 587.080994,390.500671 588.131470,391.515686 
	C590.005920,393.326813 588.871765,395.213043 587.752563,396.916656 
	C586.565552,398.723419 585.067261,398.463165 583.431946,397.453217 
	C581.192871,396.070404 579.492004,393.841400 576.817261,393.139557 
	C573.688965,398.649200 576.899536,405.757477 582.761414,406.369049 
	C585.437439,406.648224 587.310791,408.325806 589.228394,409.895874 
	C590.358704,410.821320 591.764282,411.973694 590.577637,413.642914 
	C589.608215,415.006470 588.019287,415.032837 586.479431,414.595551 
	C582.923096,413.585571 580.093140,411.235809 576.885376,408.893005 
	C576.540405,409.931061 576.296204,410.508362 576.158447,411.110077 
	C575.756531,412.866516 575.777771,415.075348 573.189148,414.956757 
	C570.687012,414.842163 569.994934,412.966705 569.786011,410.783081 
	C569.489807,407.685944 569.346802,404.545471 568.006775,401.409882 
	C563.868896,402.227631 561.818970,405.614777 558.787354,407.464905 
	C556.980957,408.567291 555.096863,410.398010 553.137451,407.903687 
	C551.186157,405.419525 552.111572,403.164337 554.343506,401.406464 
	C556.566162,399.655945 558.777283,397.803436 561.250671,396.474335 
	C570.298828,391.612091 570.405884,383.123810 570.931396,374.365631 
	C566.559204,373.560944 563.616211,376.241119 560.240417,377.265137 
	C558.188599,377.887482 555.838562,379.237000 554.555115,376.520020 
	C553.289917,373.841736 555.658875,372.674561 557.566101,371.648987 
	C559.912231,370.387451 562.223938,368.754517 564.752563,368.195068 
	C574.050110,366.137878 575.967834,359.001099 577.255127,350.944031 
	C573.763550,349.377686 570.417603,350.907349 567.049500,351.059143 
	C564.291992,351.183441 560.044006,352.964539 559.289490,349.095612 
	C558.486511,344.977936 563.013611,345.357147 565.728333,344.695404 
	C568.311707,344.065704 571.023621,343.174896 573.589355,343.403625 
	C582.537170,344.201202 583.498657,336.396210 587.950928,331.526825 
	C583.530579,329.354034 579.568970,329.323608 575.612671,329.222229 
	C573.452148,329.166901 570.780823,329.376984 570.597900,326.420105 
	C570.400452,323.228699 573.059143,322.844391 575.492676,322.815765 
	C579.490540,322.768707 583.525024,322.551270 587.480286,322.985779 
	C592.684631,323.557495 595.747681,321.518127 597.237427,316.358185 
	C594.252319,313.421692 590.204956,314.079468 586.593018,313.408081 
	C584.362854,312.993561 581.284607,313.529907 581.629395,310.067993 
	C581.976440,306.582581 585.043762,306.934784 587.508484,307.248199 
	C590.475403,307.625519 593.399231,308.341827 596.745239,308.975098 
z"/>
<path fill="#000000" opacity="1.000000" stroke="none" 
	d="
M445.555450,286.143555 
	C447.281616,286.822998 449.002625,287.181519 448.884613,289.071747 
	C448.777344,290.790283 447.227600,291.489624 445.844452,291.965179 
	C441.642365,293.410004 437.421570,293.774323 431.915680,291.817566 
	C436.652649,288.483307 440.242554,285.836609 445.555450,286.143555 
z"/>
<path fill="#000000" opacity="1.000000" stroke="none" 
	d="
M540.590698,615.644836 
	C540.985291,618.947937 538.524536,618.078003 537.087463,618.014709 
	C532.178894,617.798462 527.283997,617.275146 522.375549,616.607910 
	C528.281860,615.154480 534.228271,614.396667 540.590698,615.644836 
z"/>
<path fill="#000000" opacity="1.000000" stroke="none" 
	d="
M406.414795,297.486389 
	C406.750641,300.385193 404.843170,301.117645 402.957367,301.729950 
	C401.900757,302.072998 401.091736,301.392365 400.512665,300.507660 
	C399.600372,299.113892 399.441864,297.661530 400.741486,296.499573 
	C402.754639,294.699707 404.624847,295.304504 406.414795,297.486389 
z"/>
<path fill="#000000" opacity="1.000000" stroke="none" 
	d="
M854.744141,523.352173 
	C852.247131,522.319946 849.480286,522.551025 847.478027,519.239685 
	C852.569153,519.164307 856.358398,520.382507 860.383972,522.893982 
	C858.407715,524.779785 856.731750,523.835266 854.744141,523.352173 
z"/>
<path fill="#000000" opacity="1.000000" stroke="none" 
	d="
M791.624084,505.130402 
	C792.922363,506.393921 792.974060,507.593445 791.436829,507.854523 
	C789.333801,508.211670 787.373352,507.622345 786.210266,505.472992 
	C787.921814,503.554596 789.653076,504.734192 791.624084,505.130402 
z"/>
<path fill="#000000" opacity="1.000000" stroke="none" 
	d="
M188.616516,524.790771 
	C186.765381,525.194153 185.315506,526.578064 183.085449,524.775146 
	C186.462250,522.247375 189.703262,520.376892 194.326294,520.135803 
	C193.422775,523.437073 190.709579,523.441833 188.616516,524.790771 
z"/>
<path fill="#000000" opacity="1.000000" stroke="none" 
	d="
M429.756653,506.787170 
	C424.462769,507.761505 422.491516,505.736603 422.956055,500.862701 
	C423.334808,496.888672 423.559906,492.889618 423.613647,488.898438 
	C423.653717,485.918091 425.085297,484.791626 427.874054,484.568604 
	C431.852386,484.250488 435.819672,483.767639 439.780762,483.268524 
	C442.598663,482.913391 443.980133,484.290161 443.926788,486.893585 
	C443.821106,492.048370 443.481079,497.198486 443.229248,502.350098 
	C443.102386,504.944580 441.226501,505.625244 439.140991,505.878662 
	C436.167908,506.239929 433.176575,506.450745 429.756653,506.787170 
z"/>
<path fill="#000000" opacity="1.000000" stroke="none" 
	d="
M688.706665,496.189911 
	C688.341492,491.644196 690.261047,490.434479 694.106812,491.087372 
	C710.782288,493.918335 707.945984,490.373047 708.088257,507.405029 
	C708.142944,513.959778 707.282471,514.570129 700.815308,513.725220 
	C688.700623,512.142517 688.700745,512.142517 688.709045,499.645844 
	C688.709717,498.652130 688.707764,497.658386 688.706665,496.189911 
z"/>
<path fill="#000000" opacity="1.000000" stroke="none" 
	d="
M307.240051,569.031128 
	C306.543274,554.603821 306.543274,554.603821 320.013489,551.189026 
	C327.873474,549.196472 327.982361,549.478577 327.565582,557.771118 
	C327.088470,567.263794 328.430908,566.123230 317.790710,568.801453 
	C314.532837,569.621582 311.000458,572.162354 307.240051,569.031128 
z"/>
<path fill="#000000" opacity="1.000000" stroke="none" 
	d="
M308.272827,517.020935 
	C308.092743,511.973541 308.044556,507.313721 308.046539,502.653900 
	C308.047668,499.946930 309.334503,498.335693 312.096191,497.834717 
	C315.864014,497.151215 319.617554,496.374176 323.352051,495.526337 
	C326.273407,494.863037 327.404510,496.085724 327.311676,498.887695 
	C327.262054,500.386108 327.270905,501.886414 327.244537,503.385712 
	C327.037872,515.137085 322.125977,519.454834 310.027252,518.444824 
	C309.468506,518.398193 308.958527,517.767273 308.272827,517.020935 
z"/>
</svg>